<?xml version="1.0" encoding="UTF-8" standalone="no"?>
<svg
   xmlns:dc="http://purl.org/dc/elements/1.1/"
   xmlns:cc="http://creativecommons.org/ns#"
   xmlns:rdf="http://www.w3.org/1999/02/22-rdf-syntax-ns#"
   xmlns:svg="http://www.w3.org/2000/svg"
   xmlns="http://www.w3.org/2000/svg"
   xmlns:sodipodi="http://sodipodi.sourceforge.net/DTD/sodipodi-0.dtd"
   xmlns:inkscape="http://www.inkscape.org/namespaces/inkscape"
   height="143.33076"
   width="292.64166"
   version="1.1"
   id="svg42"
   sodipodi:docname="cinnamoroll 4k.svg"
   inkscape:version="0.92.3 (2405546, 2018-03-11)">
  <metadata
     id="metadata48">
    <rdf:RDF>
      <cc:Work
         rdf:about="">
        <dc:format>image/svg+xml</dc:format>
        <dc:type
           rdf:resource="http://purl.org/dc/dcmitype/StillImage" />
        <dc:title></dc:title>
      </cc:Work>
    </rdf:RDF>
  </metadata>
  <defs
     id="defs46" />
  <sodipodi:namedview
     pagecolor="#ffffff"
     bordercolor="#666666"
     borderopacity="1"
     objecttolerance="10"
     gridtolerance="10"
     guidetolerance="10"
     inkscape:pageopacity="0"
     inkscape:pageshadow="2"
     inkscape:window-width="1920"
     inkscape:window-height="1015"
     id="namedview44"
     showgrid="false"
     fit-margin-top="0"
     fit-margin-left="0"
     fit-margin-right="0"
     fit-margin-bottom="0"
     inkscape:zoom="1.573858"
     inkscape:cx="96.410964"
     inkscape:cy="74.804795"
     inkscape:window-x="-8"
     inkscape:window-y="-8"
     inkscape:window-maximized="1"
     inkscape:current-layer="g40" />
  <g
     transform="translate(-39.947826,-114.31923)"
     id="g40">
    <path
       d="m 137.8,220.4 q -0.7,-0.2 -0.9,0.45 -0.15,0.45 -0.2,2.05 2.8,-0.1 6,-1.5 l -4.9,-1 M 208,117.45 q 6.2,1.75 12.9,5.15 3.85,-1.45 8.05,-1.8 3.25,-0.25 8.25,0.15 4.1,0.3 18.15,2.9 10.35,1.9 17.2,1.05 5.15,-0.65 13.95,-3.05 9.9,-2.7 13.95,-3.4 13.2,-2.25 22.1,3 3.4,2 5.75,5.1 3.35,4.5 4.1,11.9 0.6,6.2 -0.7,12.75 -1.9,9.85 -7.25,15.95 -6.1,6.9 -15.75,7.7 l -18.85,0.55 q -13.2,-0.9 -25.6,-4.7 -17.45,-5.5 -17.65,-5.95 l -0.25,-0.1 v 0.3 h -0.1 q 1.55,11.3 -7,17.8 l -3.8,2.75 -0.3,2.95 q -0.2,3.45 -0.7,5.5 l -1.75,6.45 -1,2.55 -1.2,2.7 q -0.1,0.7 0.45,1.95 l 0.75,1.9 q 1.8,6.2 2.05,9.9 0.25,3.85 -0.75,10.7 0.1,-0.5 1.5,0.2 1.55,0.85 2.2,2.55 0.55,1.4 0.1,4.1 -0.35,2.15 -1.05,3.95 l -2.1,5.35 q -1.05,2.4 -3.05,5.3 l -2.65,3.5 q -1.2,1.25 -3.3,2.4 l -4.2,0.2 q -1.15,-0.45 -3.6,-2.6 l -2.15,-2.8 q -1.55,-2.1 -2.4,-2.2 -5.55,2.4 -12.5,3.55 -18.75,3.05 -30.55,0.5 l -3.95,-1.2 q -2.6,-0.7 -3.85,-0.05 -6.35,3.65 -13.9,2.65 -4.45,-0.55 -5.3,-5.4 -0.75,-4 1,-6.85 l -1.7,1.55 -4.85,3.7 q -3.85,2.5 -10.25,4.1 -11.7,2.9 -21.8,-2.85 Q 94.2,243.8 92.1,232.1 q -1.35,-7.45 1.45,-15.85 2.7,-7.95 9.05,-12.35 6.1,-4.2 14,-4.05 5.25,0.1 9.05,1.9 0.95,0.4 3.75,2.25 1.85,1.2 2.45,0.85 l 4.15,-3.2 2.1,-1.7 -0.05,-0.2 -0.05,-0.05 -3.75,-1.35 q -4.25,-1.7 -6.5,-3.1 -3.4,-2.15 -5.55,-5.25 -1.3,-1.6 -2.15,-4.35 l -1.2,-4.55 -0.75,0.5 -7.35,6.65 q -11.55,9 -19.4,12.7 -10.7,5 -22.45,4.85 -7.25,-0.7 -12.05,-2.8 -5.9,-2.5 -11,-8.05 -3.6,-4.05 -5.05,-9.45 -1.4,-5.25 -0.5,-10.25 0.8,-4 3.05,-6.75 1.95,-2.4 5.85,-4.85 3.55,-2.15 7.65,-3.45 l 7.45,-1.85 11.15,-2.6 q 6.7,-1.7 11.3,-3.4 4.95,-1.8 9.8,-4.45 l 9.85,-5.7 q 11.2,-6.45 18.1,-9.5 0.1,0.25 0.3,-0.15 7.05,-2.3 11.4,-2.25 l 2.5,0.15 1.9,-0.35 q 1.75,-0.85 4.3,-2.75 l 3.45,-2.6 q 2.45,-1.6 4.75,-2.6 l 4,-1.7 q 7.15,-3.15 17.15,-4.9 11.5,-2 20.2,-0.75 8.35,1.15 13.55,2.65"
       id="path22"
       inkscape:connector-curvature="0"
       style="fill:#7ecfe2;fill-rule:evenodd;stroke:none" />
    <path
       d="m 69.65,160.95 7.35,-1.6 10.35,-3.3 Q 92.5,154.2 98,151.25 l 15.95,-9.15 q 16.45,-9.7 23.4,-8.05 l 0.7,0.25 q -5.4,8.45 0.9,2.4 7.15,-6.8 14.2,-10.4 9.7,-5.05 21.1,-7.15 11.85,-2.15 22.35,-0.55 8.15,1.3 13.2,2.95 7.8,2.55 13.6,7.15 l 1.05,1 q 0.65,0.65 1.2,0.85 1.2,0.45 -1.35,-4.35 0.75,-1.6 5.1,-1.8 1.35,-0.1 6,0.1 4.65,0.2 13.35,1.9 l 13.45,2.05 q 6.7,0.45 10.7,0.15 4.8,-0.3 10.15,-1.85 8.75,-2.4 20.55,-4.75 6,-1.2 12,0.45 7.15,1.95 10.15,7.25 4,6.95 2.95,17.1 -1,10 -6.1,15.9 -3.95,4.55 -8.1,6.3 -3.55,1.5 -10.55,2.2 l -6.95,0.45 -5.95,-0.3 q -8.35,-0.5 -15.35,-2.05 -12,-2.65 -17.55,-4.65 l -0.05,0.05 -6.5,-1.95 q -3.65,-1.05 -6.1,-2.4 -0.8,-0.45 -2.5,-3.35 l -2.1,-3.75 q -1.35,-2.35 -3.9,-5.65 -3.15,-4.1 -2.05,-0.75 0.65,2.1 4.25,9 2.5,4.7 3.05,9.3 -1.95,-2.35 -6.65,-2.6 -4.05,-0.15 -8.2,1.15 -4.55,1.4 -6.65,3.65 -1.65,1.65 -1.9,3.75 -0.25,2.2 1.2,4.15 1.15,1.55 4.6,1.85 l 5.95,-0.3 5.3,-0.9 q 3.25,-0.65 5.1,-1.8 -1.85,4.05 -5.95,6.6 -1.35,0.95 -1.85,0.55 -2.15,-1.8 -6.75,-0.75 -4.15,0.95 -7.15,3.3 l -3.35,3 -3.05,2.3 q -4.65,1.8 -8.2,2.65 l -7.95,1.6 q -13.6,2.55 -19.25,2.9 l -12,1 -11.85,0.55 q -13.3,0 -21.95,-5.05 l -1.2,-0.75 5.1,-0.35 6.2,-1.05 q 3.75,-0.85 5.55,-2.65 1.6,-1.6 1.55,-3.8 0,-1.95 -1.3,-3.8 -1.85,-2.6 -6.7,-2.95 -4.1,-0.25 -8.45,1.1 -4.45,1.4 -6.7,3.7 -1.15,1.15 -1.6,2.65 -0.95,-2.2 -1.25,-4.85 -0.5,-5.95 1.35,-13.1 l 4,-12.55 q -0.3,-0.75 -1.2,-0.2 -3.45,2.05 -5.55,9.55 l -2.6,11.1 q -2.15,3.15 -5.25,6 -2.75,2.5 -8.05,6.4 l -9.15,6.5 q -5.2,3 -14.45,6.1 -5.15,1.75 -10.9,1.8 -5.95,0.1 -11.1,-1.65 -12.1,-4.05 -14.85,-15.45 -1.3,-5.35 -0.25,-9.3 2.7,-10.6 24.75,-14.25"
       id="path24"
       inkscape:connector-curvature="0"
       style="fill:#ffffff;fill-rule:evenodd;stroke:none" />
    <path
       d="m 148.9,184.15 q 0.05,2.2 -1.55,3.8 -1.8,1.8 -5.55,2.65 l -6.2,1.05 -5.1,0.35 q -4.5,-2.9 -6.35,-7.15 0.45,-1.5 1.6,-2.65 2.25,-2.3 6.7,-3.7 4.35,-1.35 8.45,-1.1 4.85,0.35 6.7,2.95 1.3,1.85 1.3,3.8"
       id="path26"
       inkscape:connector-curvature="0"
       style="fill:#fccce5;fill-rule:evenodd;stroke:none" />
    <path
       d="m 220.75,167.35 q 2.1,-2.25 6.65,-3.65 4.15,-1.3 8.2,-1.15 4.7,0.25 6.65,2.6 0.6,4.9 -1.25,8.95 -1.85,1.15 -5.1,1.8 l -5.3,0.9 -5.95,0.3 q -3.45,-0.3 -4.6,-1.85 -1.45,-1.95 -1.2,-4.15 0.25,-2.1 1.9,-3.75"
       id="path28"
       inkscape:connector-curvature="0"
       style="fill:#fccce5;fill-rule:evenodd;stroke:none" />
    <path
       d="m 211.8,154.8 q 0.35,-2.3 1.5,-3.85 1.7,-2.15 5,-1.3 0.8,0.3 2,1.6 1.85,2.05 2.2,5.35 0.35,3.4 -1.35,5.45 -1.5,1.9 -4.5,1.8 -3.05,-0.5 -3.45,-2.35 -0.35,-0.35 -1.15,-2.6 -0.6,-1.9 -0.25,-4.1"
       id="path30"
       inkscape:connector-curvature="0"
       style="fill:#7ecfe2;fill-rule:evenodd;stroke:none" />
    <path
       d="m 148.95,162.5 q 1.3,2.65 1.15,5.7 -0.1,3.3 -1.85,5.4 -1.45,1.2 -4.1,1.3 l -1.7,-0.65 q -2.25,-1.95 -2.55,-5.4 -0.3,-3 0.85,-6.05 1.55,-3 3.95,-3.2 2.7,0 4.25,2.9"
       id="path32"
       inkscape:connector-curvature="0"
       style="fill:#7ecfe2;fill-rule:evenodd;stroke:none" />
    <path
       d="m 193.65,171.3 q 0.25,2 -1.65,3.15 -1.65,1.75 -5.1,1.35 l -5.75,-1.05 q -1.25,-0.15 -2.9,0.75 l -3,1.9 q -3.9,2.45 -6.55,0.45 -1.25,-1.25 -1.4,-2.1 -0.1,-1.85 0.95,-2.75 0.95,-0.9 1.45,-0.6 0.55,0.3 0.25,2 -0.3,1.55 1.1,1.9 1.65,-0.2 4,-1.65 2.7,-1.7 3.8,-2.05 l 6.05,0.35 4.25,0.15 1.55,-0.9 q 0.6,-0.75 0.3,-1.6 l -1.2,-0.9 q -0.6,-0.55 -0.35,-1.45 0.55,-0.55 1.35,-0.3 2.45,0.65 2.85,3.35"
       id="path34"
       inkscape:connector-curvature="0"
       style="fill:#7ecfe2;fill-rule:evenodd;stroke:none" />
    <path
       d="m 231.15,192.05 q -0.75,4.05 -1.95,6.7 l -2.05,3.85 q -1.3,2.25 -1.35,2.75 -0.1,0.5 0.45,1.5 l 1.25,2.4 q 2.05,4 2.45,8.35 0.55,6.45 0.1,9.05 -0.45,2.7 -2.4,4.2 l -5.4,3.85 q -2.15,1.6 -1.65,2.5 l 1.8,-0.45 1.8,-0.85 5.85,-2.15 q 3.75,-0.8 3.25,2.3 -0.5,3.3 -3,8.1 -4.3,8.2 -7.4,9.1 -2.5,0.7 -5.9,-4.65 -1.25,-1.85 -2.7,-2.3 l -3.5,0.3 -5.2,1.6 q -4,1.25 -7.85,1.9 -12.95,2.2 -22.7,1.25 -9.45,-0.85 -19.65,-5.05 -0.3,-0.1 0.8,1.7 1.1,1.85 1.9,2.15 -2.8,1.95 -6.15,2.25 -3.05,0.3 -4.7,-0.85 -1.8,-1.25 -1.15,-4.65 l 1.35,-5.15 -0.2,-4.3 q -0.3,-3.9 -0.2,-5.8 0.2,-4.35 1.75,-10.25 l 1.95,-6.3 q 1.2,-3.85 0.7,-3.9 -1.65,0.1 -3.35,3.3 -1.7,3.2 -2.3,3.2 -4.75,0.05 -9.45,-1.7 -4.9,-1.85 -4.7,-3.95 0.25,-3.15 5.95,-7.35 5.25,-3.9 7.25,-3.8 5.45,0.25 22.7,-0.4 l 15.7,-1.6 q 8.5,-1 22.25,-3.65 l 6.45,-1.7 q -0.25,0.1 -0.25,1.15 0,1.25 0.55,1.45 0.75,0.3 1.95,-1.1 l 1.5,-2 q 2.25,-3.1 5.4,-5.5 2.95,-2.3 5.55,-3.1 L 229,183.9 q 1.45,-0.1 2.05,1.05 1.05,2.1 0.1,7.1"
       id="path36"
       inkscape:connector-curvature="0"
       style="fill:#ffffff;fill-rule:evenodd;stroke:none" />
    <path
       d="m 127.85,212 q -0.3,2.25 0.75,3.45 l 1.75,1.65 q 3.85,2.8 1.05,8.75 -1.1,2.4 -2.95,4.4 -1.85,2 -3.5,2.7 -4.85,2.1 -9.2,-0.65 -4.55,-2.9 -3.85,-8.7 l 0.75,-3 q 0.55,-2.4 -0.1,-2.7 -1.2,-0.55 -2.25,2.7 -0.8,2.5 -0.9,4.15 -0.4,5.6 3.55,9.35 3.8,3.65 9.25,3.4 4.5,-0.2 8.45,-3.35 3.7,-3 4.85,-6.9 0.2,-0.6 4.25,-1.55 l 4.25,-1 q -0.5,2.3 -0.45,6.7 0.05,3.9 -0.7,5.9 -1.25,3.55 -7.45,7.35 -6.7,4.1 -13.5,4.65 -6,0.5 -11.8,-1.55 -6.85,-2.4 -10.15,-7.5 l -0.1,0.1 q -2.2,-2.95 -3.4,-7 -2.5,-7.9 0.8,-16.55 1.65,-4.25 5.1,-7.45 3.4,-3.2 7.75,-4.65 6.1,-2.05 11.55,-0.55 4.2,1.2 7.2,4.5 -0.8,1.6 -1,3.35"
       id="path38"
       inkscape:connector-curvature="0"
       style="fill:#ffffff;fill-rule:evenodd;stroke:none" />
  </g>
</svg>
